<?xml version="1.0" standalone="yes"?>
<svg width="194" height="103">
<path style="fill:#59708d; stroke:none;" d="M0 0L0 16L129 12.9846L175 10L174 12L194 14L194 0L0 0z"/>
<path style="fill:#6f89a1; stroke:none;" d="M0 16L0 21L71 17.9568L149 12C150.374 21.6956 166.106 21.0047 173 21L179 27L185 23C186.92 26.7443 189.883 28.4384 194 29L194 14L174 12L175 10L128 12.9707L0 16z"/>
<path style="fill:#8193a7; stroke:none;" d="M0 21L0 25C40.3864 23.266 82.5554 20.762 123 24.0934C134.033 25.0021 144.569 30.5092 156 31L155 28C162.661 29.9017 174.402 34.7378 181 28L173 21L160 22L157 17L149 12L70 17.9568L0 21z"/>
<path style="fill:#a0a5a5; stroke:none;" d="M0 25L0 36L97 30.9961L127 31L125 34L130 35L130 36C125.77 36.346 121.535 36.6204 120 41L150 39L150 38L148 38L148 37C154.463 36.9957 161.353 37.0335 166 32L155 28L156 31C145.028 30.1329 134.646 24.9702 124 24.0934C83.6885 20.773 40.2069 21.8269 0 25z"/>
<path style="fill:#9a9581; stroke:none;" d="M179 27L176 25L181 28C175.784 31.7517 170.188 31 164 31L164 32L166 33L148 37L148 38L150 38L150 39L147 39L147 40L194 38L194 29L185 23L179 27z"/>
<path style="fill:#b3b7b7; stroke:none;" d="M60 32L60 33L127 35L127 34L125 33L127 31L99 30.9846L60 32z"/>
<path style="fill:#d5b595; stroke:none;" d="M20 36L20 37C45.0317 37 69.9709 40 95 40C100.133 40 117.793 42.6348 119 37L130 36L96 35L47.0147 33.0193L20 36z"/>
<path style="fill:#d39162; stroke:none;" d="M0 36L0 41L45 42L45 41L36 41L36 40L43 40L43 39L20 39L20 38L32 38L0 36z"/>
<path style="fill:#a8724e; stroke:none;" d="M119 37L119 45L129 45L129 47L120 47L120 48C138.979 48 157.323 45.1729 176 45C180.476 44.9586 192.981 44.7553 194 40L120 43L119 37z"/>
<path style="fill:#eaa272; stroke:none;" d="M20 38L20 39L43 39L43 40L36 40L36 41L119 43L119 40L20 38z"/>
<path style="fill:#a28765; stroke:none;" d="M163 39L166 41L166 42L151 42L151 43C161.038 43 187.32 46.8143 194 38L163 39z"/>
<path style="fill:#c79a71; stroke:none;" d="M120 41L120 43L166 42C154.629 35.1883 132.751 40.8944 120 41z"/>
<path style="fill:#f18a55; stroke:none;" d="M0 41L0 45L119 46L119 43L54 41.0039L0 41z"/>
<path style="fill:#8a522e; stroke:none;" d="M0 45L0 47L7 47L7 51L9 51L10 43L0 45z"/>
<path style="fill:#170b09; stroke:none;" d="M10 43L9 51L7 51L7 47L0 47L0 103C8.49561 103 32.1453 106.59 36 97L38 97C39.7316 99.6692 40.9424 99.7099 44 99L45 85L46 85L49 89C49.9456 93.6375 54.0981 92.2942 58 92L58 88L73 89L84 77C89.1307 77 95.1066 81.467 96 77L103 86C107.762 84.2443 109.759 85.078 113 89L117 89L118 89L118 86L119 86L126 90L126 87L137 89C132.569 77.0525 120.214 81 110 81L111 78L98 77L98 76L100 72L107 71L108 71C108.074 64.7502 109.572 62.3402 116 64L119 59L119 63L121 63L119 58L119 57L132 56L138 55L138 56L134 56L135 60L151 62L153 71L154 71C154.656 65.6632 154.961 61.6444 149 60L149 55L159 50L162 55L159 55L159 56L161 59L162 56L167 56L166 60L174 56C174.456 61.7213 187.451 67.717 192.397 63.8202C195.478 61.3934 194 53.4941 194 50L180 54L170 50L169 50L168 50L166 52C162.937 47.7535 157.608 49.0881 152.91 49.6258C142.361 50.8331 128.584 47.0133 119 52C117.96 47.147 110.088 49 106 49C93.7997 49 79.7817 50.7108 68 48L68 50L31 48L20.1667 46.4444L20 49L20 50L17 44L10 43z"/>
<path style="fill:#87533c; stroke:none;" d="M120 48L120 49L194 48L194 43L120 48z"/>
<path style="fill:#cc613e; stroke:none;" d="M17 47L49 47C43.2749 44.5977 21.3031 42.0757 17 47z"/>
<path style="fill:#d06141; stroke:none;" d="M82 47L82 48L119 48L119 52L120 52L120 47L129 47L129 45L82 47z"/>
<path style="fill:#8e4d36; stroke:none;" d="M22 47L22 48L52 48L66 50L67 50L68 50L68 48L90 49C79.9215 44.7314 67.5586 46.4983 57 46.9606C45.3776 47.4696 33.6341 47 22 47z"/>
<path style="fill:#713c29; stroke:none;" d="M17 47L17 50L18 50L19 47L17 47z"/>
<path style="fill:#62362a; stroke:none;" d="M42 48L42 49L66 49L42 48z"/>
<path style="fill:#904736; stroke:none;" d="M91 48L91 49L119 49L91 48z"/>
<path style="fill:#5e3f30; stroke:none;" d="M165 49L166 52L168 50L169 50L170 50L182 51C185.188 54.5918 189.981 50.5465 194 50L194 48L165 49z"/>
<path style="fill:#513fa2; stroke:none;" d="M18.6667 49.3333L19.3333 49.6667L18.6667 49.3333z"/>
<path style="fill:#5a332a; stroke:none;" d="M120 52L121 52C127.672 46.9454 143.761 50 152 50C147.539 47.4297 121.077 46.9729 120 52z"/>
<path style="fill:#050705; stroke:none;" d="M158 50L149 55L149 60L155 57L154 71L153 71L151 62C144.349 59.5326 142.014 58.4374 135 60L132 53C126.138 54.7944 125.124 58.196 125 64L124 64L123 62C120.162 62.7609 119.743 61.739 119 59L116 65L125 69L120 72L119 72L118 72C115.146 67.4949 111.042 67.9801 108 72L107 69L100 72L98 76L98 77L111 78L110 81C120.846 81 131.006 77.924 137 89L126 87L126 90L119 86L118 86L118 89C111.847 88.0354 109.441 82.6758 103 86C102.615 81.0424 100.114 79.4253 96 77L84 77L73 89L58 88L58 92C54.4119 92.0974 50.0476 93.2491 49 89L46 85L45 85L44 99L38 97L36 97L26 102L26 103L89 103L91 99L90 88L96 85L96 80L101 81L98 89L103 103L151 103L151 82L194 86L194 64C187.706 65.1013 175.188 63.2789 174 56L166 60L167 56L161 59L159 55L162 55L162 54L158 50z"/>
<path style="fill:#8d7257; stroke:none;" d="M26 51L26 52L33 52L26 51z"/>
<path style="fill:#896453; stroke:none;" d="M180 51L180 54L182 54L182 51L180 51z"/>
<path style="fill:#a9989e; stroke:none;" d="M140.667 52.3333L141.333 52.6667L140.667 52.3333z"/>
<path style="fill:#755d60; stroke:none;" d="M142.667 52.3333L143.333 52.6667L142.667 52.3333z"/>
<path style="fill:#85776b; stroke:none;" d="M139 53L139 57L147 59L145 53L144 53L139 53z"/>
<path style="fill:#eac4cf; stroke:none;" d="M140 53L140 55L144 55L144 53L140 53z"/>
<path style="fill:#5d3a1f; stroke:none;" d="M63 54L63 60L44 61C44.8382 64.8315 55.2951 63.9592 57 61L68 63L69 61L67 54L63 54z"/>
<path style="fill:#b8815d; stroke:none;" d="M52.6667 55.3333L53.3333 55.6667L52.6667 55.3333z"/>
<path style="fill:#696453; stroke:none;" d="M133 55L133 56L138 56L133 55z"/>
<path style="fill:#483623; stroke:none;" d="M119 57L119 58L121 64L124 64L125 64L126 57L119 57z"/>
<path style="fill:#403c36; stroke:none;" d="M153 57L153 60L154 60L155 57L153 57z"/>
<path style="fill:#4e3e30; stroke:none;" d="M191 57C187.99 60.3074 186.417 63.0695 192 64L192 63L190 62L193 61L191 57z"/>
<path style="fill:#938895; stroke:none;" d="M70.6667 59.3333L71.3333 59.6667L70.6667 59.3333z"/>
<path style="fill:#bea28c; stroke:none;" d="M73 59L73 60L77 60L73 59z"/>
<path style="fill:#787667; stroke:none;" d="M152 59L154 62L152 59z"/>
<path style="fill:#7e6754; stroke:none;" d="M177 60L177 61L181 61L177 60z"/>
<path style="fill:#352112; stroke:none;" d="M108 72L109 72C111.439 68.0701 114.844 69.2253 119 69L118 72L125 69C123.267 65.6954 112.08 60.2234 109.028 63.7608C107.35 65.7054 108.002 69.6357 108 72z"/>
<path style="fill:#776f58; stroke:none;" d="M73.6667 64.3333L74.3333 64.6667L73.6667 64.3333z"/>
<path style="fill:#785331; stroke:none;" d="M121 66L120 67L120 68L121 69L122 69L123 68L123 67L121 66z"/>
<path style="fill:#ad6d30; stroke:none;" d="M117.667 69.3333L118.333 69.6667L117.667 69.3333z"/>
<path style="fill:#472312; stroke:none;" d="M26 78L37 78L37 74C32.4139 74.0035 28.3544 73.5092 26 78z"/>
<path style="fill:#8b450f; stroke:none;" d="M77 79L77 81L79 81L79 79L77 79z"/>
<path style="fill:#33180a; stroke:none;" d="M96 80L96 85L90 88C90.0912 95.6506 95.1137 102.906 103 103L98 89L101 81L96 80z"/>
<path style="fill:#24171b; stroke:none;" d="M151 82L151 103L194 103L194 86L151 82z"/>
<path style="fill:#a399a2; stroke:none;" d="M114.667 87.3333L115.333 87.6667L114.667 87.3333z"/>
<path style="fill:#615863; stroke:none;" d="M116 87L114 88L114 89L116 87z"/>
<path style="fill:#81765a; stroke:none;" d="M152.667 87.3333L153.333 87.6667L152.667 87.3333z"/>
<path style="fill:#af9f69; stroke:none;" d="M159.333 87.6667L159.667 88.3333L159.333 87.6667z"/>
<path style="fill:#8d7b5a; stroke:none;" d="M152.667 89.3333L153.333 89.6667L152.667 89.3333z"/>
<path style="fill:#35352f; stroke:none;" d="M75 90L75 91L83 91L75 90z"/>
<path style="fill:#45332f; stroke:none;" d="M159 90L159 91L180 93L159 90z"/>
<path style="fill:#927e6c; stroke:none;" d="M180.667 92.3333L181.333 92.6667L180.667 92.3333z"/>
<path style="fill:#683109; stroke:none;" d="M90 95L91 99L89 103L96 103C95.0841 98.8384 94.125 96.5121 90 95z"/>
<path style="fill:#cb9145; stroke:none;" d="M170.667 96.3333L171.333 96.6667L170.667 96.3333z"/>
<path style="fill:#cc9943; stroke:none;" d="M173 96L174 97L173 96z"/>
<path style="fill:#845c3c; stroke:none;" d="M185 102L185 103L189 103L185 102z"/>
</svg>
